<svg xmlns="http://www.w3.org/2000/svg" xmlns:xlink="http://www.w3.org/1999/xlink" version="1.1" width="13.310604095458984" height="23.080524444580078" viewBox="0.4508960247039795 0.8962686061859131 13.310604095458984 23.080524444580078">
  <!-- Exported by Scratch - http://scratch.mit.edu/ -->
  <path id="ID0.14085920341312885" fill="#FFFF00" stroke="#FF9400" stroke-width="2" stroke-linecap="round" d="M 8.15 2.4 C 8.344 2.103 5.839 3.563 4.6 5.15 C 3.271 6.852 3.132 9.218 2.4 11.25 C 2.166 11.899 1.853 12.527 1.7 13.2 C 1.551 13.853 1.532 14.531 1.5 15.2 C 1.466 15.915 1.409 16.64 1.5 17.35 C 1.594 18.083 1.712 18.843 2.05 19.5 C 2.363 20.109 2.865 20.623 3.4 21.05 C 3.948 21.486 4.612 21.761 5.25 22.05 C 5.864 22.328 6.492 22.602 7.15 22.75 C 7.835 22.904 8.553 23.035 9.25 22.95 C 9.95 22.865 10.66 22.637 11.25 22.25 C 11.812 21.881 12.367 21.38 12.6 20.75 C 12.848 20.079 12.78 19.293 12.6 18.6 C 12.239 17.212 11.619 15.894 11 14.6 C 10.683 13.938 10.172 13.383 9.8 12.75 C 9.438 12.133 8.993 11.538 8.8 10.85 C 8.602 10.143 8.694 9.383 8.65 8.65 C 8.61 7.984 8.558 7.317 8.55 6.65 C 8.541 5.951 8.435 5.23 8.6 4.55 C 8.825 3.621 10.344 1.803 9.7 1.9 Z "/>
</svg>