<?xml version="1.0" encoding="utf-8"?>
<!-- Generator: Adobe Illustrator 16.0.0, SVG Export Plug-In . SVG Version: 6.00 Build 0)  -->
<!DOCTYPE svg PUBLIC "-//W3C//DTD SVG 1.1//EN" "http://www.w3.org/Graphics/SVG/1.1/DTD/svg11.dtd">
<svg version="1.1" id="Camada_1" xmlns="http://www.w3.org/2000/svg" xmlns:xlink="http://www.w3.org/1999/xlink" x="0px" y="0px"
	 width="360px" height="360px" viewBox="0 0 360 360" enable-background="new 0 0 360 360" xml:space="preserve">
<g>
	<path fill="#D9912D" d="M88.001,234.792l1.285-86.966c0,0,2.063-67.172,71.6-68.236c65.023-0.995,60.547,4.324,75.203,9.61
		c3.842,1.386,30.238,24.588,31.184,50.56c1.066,29.339,12.098,120.339-3.489,127.08c-16.669,7.209-32.739-15.698-37.543-31.075
		c-4.807-15.377-11.535-5.767-14.418-0.961s-16.274,29.54-28.286,22.813c-12.013-6.728-23.611-31.462-34.664-24.734
		s-18.359,25.877-22.063,30.269c-5.129,6.08-8.678,19.614-23.982,17.064C86.225,277.448,88.001,234.792,88.001,234.792z"/>
	<ellipse fill="#FFFFFF" cx="214.429" cy="122.027" rx="28.592" ry="29.074"/>
	<ellipse fill="#193E84" cx="214.43" cy="111.927" rx="13.695" ry="14.896"/>
	<path fill="#FFFFFF" d="M173.343,122.027c0,16.058-12.805,29.074-28.592,29.074c-15.791,0-28.592-13.017-28.592-29.074
		c0-16.055,12.801-29.071,28.592-29.071C160.539,92.956,173.343,105.973,173.343,122.027z"/>
	<ellipse fill="#193E84" cx="144.752" cy="113.514" rx="13.695" ry="14.896"/>
</g>
</svg>
