<?xml version="1.0" encoding="utf-8"?>
<!-- Generator: Adobe Illustrator 16.0.0, SVG Export Plug-In . SVG Version: 6.00 Build 0)  -->
<!DOCTYPE svg PUBLIC "-//W3C//DTD SVG 1.1//EN" "http://www.w3.org/Graphics/SVG/1.1/DTD/svg11.dtd">
<svg version="1.1" id="Camada_1" xmlns="http://www.w3.org/2000/svg" xmlns:xlink="http://www.w3.org/1999/xlink" x="0px" y="0px"
	 width="360px" height="360px" viewBox="0 0 360 360" enable-background="new 0 0 360 360" xml:space="preserve">
<g>
	<path fill="#72B4C7" d="M88.523,235.273l5.611-85.157c0,0,0.217-65.61,69.753-66.675c65.023-0.995,58.068,0.954,72.724,6.24
		c3.842,1.386,30.734,34.463,31.68,60.435c1.066,29.339,10.105,114.916-5.481,121.657c-15.04,6.505-26.652-6.137-33.254-27.272
		c-4.807-15.377-15.824-11.1-18.708-6.294c-2.883,4.806-12.943,31.857-26.668,32.933c-13.063,1.023-23.732-44.504-34.785-37.776
		s-10.05,18.454-13.753,22.846c-5.129,6.08-11.703,25.659-31.995,19.369C84.321,269.588,88.523,235.273,88.523,235.273z"/>
	<path fill="#FFFFFF" d="M252.588,155.822c0,16.058-12.805,29.074-28.592,29.074c-15.791,0-28.592-13.016-28.592-29.074
		c0-16.055,12.801-29.071,28.592-29.071C239.783,126.75,252.588,139.767,252.588,155.822z"/>
	<ellipse fill="#193E84" cx="232.133" cy="155.824" rx="13.695" ry="14.896"/>
	<path fill="#FFFFFF" d="M182.91,155.822c0,16.058-12.805,29.074-28.592,29.074c-15.791,0-28.592-13.016-28.592-29.074
		c0-16.055,12.801-29.071,28.592-29.071C170.105,126.75,182.91,139.767,182.91,155.822z"/>
	<ellipse fill="#193E84" cx="162.454" cy="155.824" rx="13.695" ry="14.896"/>
</g>
</svg>
