<?xml version="1.0" encoding="utf-8"?>
<!-- Generator: Adobe Illustrator 16.0.0, SVG Export Plug-In . SVG Version: 6.00 Build 0)  -->
<!DOCTYPE svg PUBLIC "-//W3C//DTD SVG 1.1//EN" "http://www.w3.org/Graphics/SVG/1.1/DTD/svg11.dtd">
<svg version="1.1" id="Camada_1" xmlns="http://www.w3.org/2000/svg" xmlns:xlink="http://www.w3.org/1999/xlink" x="0px" y="0px"
	 width="360px" height="360px" viewBox="0 0 360 360" enable-background="new 0 0 360 360" xml:space="preserve">
<g>
	<path fill="#C22E30" d="M89.196,233.119l1.285-86.965c0,0,2.063-67.172,71.6-68.236c65.023-0.995,60.548,4.324,75.203,9.61
		c3.842,1.386,30.238,24.588,31.184,50.56c1.066,29.339,9.783,133.954-5.804,140.695c-16.669,7.209-30.425-29.313-35.229-44.69
		c-4.807-15.377-11.535-5.767-14.418-0.961s-19.704,48.534-31.716,41.807c-12.014-6.728-20.182-50.456-31.234-43.729
		s-15.037,30.688-18.74,35.079c-5.129,6.08-28.638,26.671-37.074,8.742C84.714,254.755,89.196,233.119,89.196,233.119z"/>
	<path fill="#FFFFFF" d="M258.819,147.96c0,16.058-12.805,29.074-28.592,29.074c-15.791,0-28.592-13.017-28.592-29.074
		c0-16.055,12.801-29.071,28.592-29.071C246.015,118.889,258.819,131.906,258.819,147.96z"/>
	<ellipse fill="#193E84" cx="231.536" cy="159.511" rx="13.695" ry="14.896"/>
	<path fill="#FFFFFF" d="M189.142,147.96c0,16.058-12.805,29.074-28.592,29.074c-15.791,0-28.592-13.017-28.592-29.074
		c0-16.055,12.801-29.071,28.592-29.071C176.337,118.889,189.142,131.906,189.142,147.96z"/>
	<ellipse fill="#193E84" cx="154.542" cy="159.511" rx="13.695" ry="14.896"/>
</g>
</svg>
