<?xml version="1.0" encoding="utf-8"?>
<!-- Generator: Adobe Illustrator 16.0.0, SVG Export Plug-In . SVG Version: 6.00 Build 0)  -->
<!DOCTYPE svg PUBLIC "-//W3C//DTD SVG 1.1//EN" "http://www.w3.org/Graphics/SVG/1.1/DTD/svg11.dtd">
<svg version="1.1" id="Camada_1" xmlns="http://www.w3.org/2000/svg" xmlns:xlink="http://www.w3.org/1999/xlink" x="0px" y="0px"
	 width="360px" height="360px" viewBox="0 0 360 360" enable-background="new 0 0 360 360" xml:space="preserve">
<g>
	<path fill="#D68D94" d="M88.386,215.582l3.939-65.464c0,0,2.063-67.172,71.6-68.236c65.024-0.995,60.548,4.324,75.204,9.61
		c3.842,1.386,30.238,24.588,31.184,50.56c1.066,29.339,4.526,107.085-5.866,120.517c-18.385,23.761-30.362-9.135-35.166-24.512
		c-4.807-15.377-2.705-27.864-14.418-0.961c-11.087,25.467-18.42,35.416-35.832,31.547c-13.441-2.987-13.293-51.422-24.346-44.694
		s-21.133,37.103-24.836,41.494c-5.129,6.08-12.109,21.137-28.521,6.781C86.175,258.97,88.386,215.582,88.386,215.582z"/>
	<ellipse fill="#FFFFFF" cx="217.469" cy="124.319" rx="28.592" ry="29.074"/>
	<path fill="#FFFFFF" d="M176.382,124.319c0,16.058-12.805,29.074-28.592,29.074c-15.791,0-28.592-13.017-28.592-29.074
		c0-16.055,12.801-29.071,28.592-29.071C163.578,95.248,176.382,108.264,176.382,124.319z"/>
	<circle fill="#193E84" cx="134.583" cy="126.633" r="13.208"/>
	<circle fill="#193E84" cx="203.383" cy="126.633" r="13.208"/>
</g>
</svg>
